<?xml version="1.0" encoding="UTF-8" standalone="no"?>
<!-- Created with Inkscape (http://www.inkscape.org/) -->

<svg
   width="100"
   height="100"
   viewBox="0 0 100 100"
   version="1.1"
   id="svg1"
   inkscape:version="1.3 (0e150ed6c4, 2023-07-21)"
   sodipodi:docname="Spinner.svg"
   xmlns:inkscape="http://www.inkscape.org/namespaces/inkscape"
   xmlns:sodipodi="http://sodipodi.sourceforge.net/DTD/sodipodi-0.dtd"
   xmlns="http://www.w3.org/2000/svg"
   xmlns:svg="http://www.w3.org/2000/svg">
  <sodipodi:namedview
     id="namedview1"
     pagecolor="#ffffff"
     bordercolor="#000000"
     borderopacity="0.25"
     inkscape:showpageshadow="2"
     inkscape:pageopacity="0.0"
     inkscape:pagecheckerboard="0"
     inkscape:deskcolor="#d1d1d1"
     inkscape:document-units="mm"
     inkscape:zoom="2.5650675"
     inkscape:cx="55.943947"
     inkscape:cy="64.520719"
     inkscape:window-width="1366"
     inkscape:window-height="705"
     inkscape:window-x="-8"
     inkscape:window-y="-8"
     inkscape:window-maximized="1"
     inkscape:current-layer="layer1" />
  <defs
     id="defs1">
    <inkscape:path-effect
       effect="fillet_chamfer"
       id="path-effect6"
       is_visible="true"
       lpeversion="1"
       nodesatellites_param="F,0,0,1,0,0,0,1 @ F,0,0,1,0,0,0,1 @ F,0,0,1,0,0,0,1 @ F,0,0,1,0,0,0,1"
       radius="0"
       unit="px"
       method="auto"
       mode="F"
       chamfer_steps="1"
       flexible="false"
       use_knot_distance="true"
       apply_no_radius="true"
       apply_with_radius="true"
       only_selected="false"
       hide_knots="false" />
  </defs>
  <g
     inkscape:label="Layer 1"
     inkscape:groupmode="layer"
     id="layer1">
    <path
       d="M 73.811366,93.175416 49.559413,51.16956 25.30746,93.175416 a 48.614452,48.614452 0 0 0 4.05664,2.21485 48.614452,48.614452 0 0 0 6.5,2.42383 48.614452,48.614452 0 0 0 6.777344,1.47461 48.614452,48.614452 0 0 0 6.917969,0.49609 48.614452,48.614452 0 0 0 6.917969,-0.49609 48.614452,48.614452 0 0 0 6.777343,-1.47461 48.614452,48.614452 0 0 0 6.5,-2.42383 48.614452,48.614452 0 0 0 4.056641,-2.21485 z"
       style="fill:#ff5227;stroke-width:3"
       id="path7" />
    <path
       d="M 24.265615,92.463941 48.517777,50.45821 0.01366188,50.458331 a 48.614452,48.614452 0 0 0 0.110203,4.620578 48.614452,48.614452 0 0 0 1.15090202,6.84108 48.614452,48.614452 0 0 0 2.111622,6.606657 48.614452,48.614452 0 0 0 3.0293579,6.239182 48.614452,48.614452 0 0 0 3.8886112,5.743092 48.614452,48.614452 0 0 0 4.665722,5.132046 48.614452,48.614452 0 0 0 5.349098,4.417255 48.614452,48.614452 0 0 0 3.946437,2.40572 z"
       style="fill:#ffc827;fill-opacity:1;stroke-width:3"
       id="path10" />
    <path
       d="m 98.93333,50.9352 -48.504114,-1.23e-4 24.252162,42.005735 a 48.614452,48.614452 0 0 0 3.946437,-2.405727 48.614452,48.614452 0 0 0 5.349097,-4.417251 48.614452,48.614452 0 0 0 4.665723,-5.132046 48.614452,48.614452 0 0 0 3.888611,-5.743092 48.614452,48.614452 0 0 0 3.029358,-6.239182 48.614452,48.614452 0 0 0 2.111621,-6.606658 48.614452,48.614452 0 0 0 1.150905,-6.841082 48.614452,48.614452 0 0 0 0.1102,-4.620574 z"
       style="fill:#ff2727;stroke-width:3;fill-opacity:1"
       id="path11" />
    <path
       d="M 73.421513,6.60938 49.16956,48.615236 24.917607,6.60938 a 48.614452,48.614452 0 0 1 4.05664,-2.21485 48.614452,48.614452 0 0 1 6.5,-2.42383 A 48.614452,48.614452 0 0 1 42.251591,0.49609003 48.614452,48.614452 0 0 1 49.16956,0 48.614452,48.614452 0 0 1 56.087529,0.49609003 48.614452,48.614452 0 0 1 62.864872,1.9707 a 48.614452,48.614452 0 0 1 6.5,2.42383 48.614452,48.614452 0 0 1 4.056641,2.21485 z"
       style="fill:#5b8bff;fill-opacity:1;stroke-width:3"
       id="path12" />
    <path
       d="M 24.265615,8.2676974 48.517777,50.273428 0.01366188,50.273307 a 48.614452,48.614452 0 0 1 0.110203,-4.620578 48.614452,48.614452 0 0 1 1.15090202,-6.84108 48.614452,48.614452 0 0 1 2.111622,-6.606657 48.614452,48.614452 0 0 1 3.0293579,-6.239182 48.614452,48.614452 0 0 1 3.8886112,-5.743092 48.614452,48.614452 0 0 1 4.665722,-5.132046 48.614452,48.614452 0 0 1 5.349098,-4.417255 48.614452,48.614452 0 0 1 3.946437,-2.4057196 z"
       style="fill:#00be45;fill-opacity:1;stroke-width:3"
       id="path13" />
    <path
       d="M 98.54348,49.796438 50.039363,49.796561 74.291525,7.7908264 a 48.614452,48.614452 0 0 1 3.946437,2.4057266 48.614452,48.614452 0 0 1 5.349097,4.417251 48.614452,48.614452 0 0 1 4.665723,5.132046 48.614452,48.614452 0 0 1 3.888611,5.743092 48.614452,48.614452 0 0 1 3.029358,6.239182 48.614452,48.614452 0 0 1 2.111621,6.606658 48.614452,48.614452 0 0 1 1.150908,6.841082 48.614452,48.614452 0 0 1 0.1102,4.620574 z"
       style="fill:#e127ff;fill-opacity:1;stroke-width:3"
       id="path14" />
  </g>
</svg>
